<?xml version="1.0" encoding="UTF-8" standalone="no"?>
<svg
   id="Layer_1"
   data-name="Layer 1"
   viewBox="0 0 510 182"
   version="1.1"
   sodipodi:docname="logo-light.svg"
   inkscape:version="1.4.4 (dcaf3e7, 2026-05-05)"
   inkscape:export-filename="logo-light.png"
   inkscape:export-xdpi="96"
   inkscape:export-ydpi="96"
   xmlns:inkscape="http://www.inkscape.org/namespaces/inkscape"
   xmlns:sodipodi="http://sodipodi.sourceforge.net/DTD/sodipodi-0.dtd"
   xmlns="http://www.w3.org/2000/svg"
   xmlns:svg="http://www.w3.org/2000/svg">
  <sodipodi:namedview
     id="namedview8"
     pagecolor="#ffffff"
     bordercolor="#666666"
     borderopacity="1.0"
     inkscape:showpageshadow="2"
     inkscape:pageopacity="0.0"
     inkscape:pagecheckerboard="0"
     inkscape:deskcolor="#d1d1d1"
     inkscape:zoom="2.3916847"
     inkscape:cx="250.24202"
     inkscape:cy="73.797353"
     inkscape:window-width="1920"
     inkscape:window-height="980"
     inkscape:window-x="0"
     inkscape:window-y="0"
     inkscape:window-maximized="1"
     inkscape:current-layer="Layer_1" />
  <defs
     id="defs1">
    <style
       id="style1">
      .cls-1 {
        fill: #fff;
      }

      .cls-2 {
        fill: #654ff0;
      }
    </style>
  </defs>
  <rect
     class="cls-1"
     x="107"
     y="125"
     width="50"
     height="32"
     id="rect1" />
  <path
     class="cls-2"
     d="M135.18,97c0-.13-.01-7.24-.02-7.37h27.51v71.33H91.33V89.63h27.51c0,.13-.02,7.24-.02,7.37m32.59,56.33h4.9l-7.43-25.25h-7.45l-6.12,25.25h4.75l1.24-5.62h8.49l1.61,5.62Zm-26.03,0h4.69l6.02-25.25h-4.63l-3.69,17.4h-.06l-3.5-17.4h-4.42l-3.9,17.19h-.06l-3.23-17.19h-4.72l5.44,25.25h4.78l3.75-17.19h.06l3.47,17.19Zm18.89-19.03h1.99l2.37,9.27h-6.42l2.06-9.27Z"
     id="path1" />
  <g
     id="g8">
    <path
       d="M89,49.66c0,10.6-8.8,20-20,20H29v20h-10V19.66h50c10.7,0,19.7,8.9,20,20v10Zm-10-10c0-5.5-4.5-10-10-10H29v30h40c5.5,0,10-4.5,10-10v-10Z"
       id="path2"
       style="fill:#000000;fill-opacity:1" />
    <path
       d="M132,67.66v22h-10v-22l-30-33v-15h10v10.9l25,27.5,25-27.5v-10.9h10v15l-30,33Z"
       id="path3"
       style="fill:#000000;fill-opacity:1" />
    <path
       d="M236.01,69.67c0,11-9,20-20,20h-30c-11.1,0-20-8.9-20-20v-30c0-11,9-20,20-20h30c10.6,0,20,9.1,20,20v30Zm-10-30c0-5.5-4.5-10-10-10h-30c-5.5,0-10,4.5-10,10v30c0,5.5,4.5,10,10,10h30c5.5,0,10-4.5,10-10v-30Z"
       id="path4"
       style="fill:#000000;fill-opacity:1" />
    <path
       d="M315.01,69.67c0,10.6-8.8,20-20,20h-50V19.66h50c10.7,0,19.7,8.9,20,20v30Zm-10-30c0-5.5-4.5-10-10-10h-40v50h40c5.5,0,10-4.5,10-10v-30Z"
       id="path5"
       style="fill:#000000;fill-opacity:1" />
    <path
       d="M324,19.66h10V89.67h-10V19.66Z"
       id="path6"
       style="fill:#000000;fill-opacity:1" />
    <path
       d="M414,69.67c0,10.6-8.8,20-20,20h-50V19.66h50c10.7,0,19.7,8.9,20,20v30Zm-10-30c0-5.5-4.5-10-10-10h-40v50h40c5.5,0,10-4.5,10-10v-30Z"
       id="path7"
       style="fill:#000000;fill-opacity:1" />
    <path
       d="M433,49.66h50v10h-50v20h60v10h-70V19.66h70v10h-60v20Z"
       id="path8"
       style="fill:#000000;fill-opacity:1" />
  </g>
</svg>
